<svg xmlns="http://www.w3.org/2000/svg" xmlns:xlink="http://www.w3.org/1999/xlink" width="1080" zoomAndPan="magnify" viewBox="0 0 810 809.999993" height="1080" preserveAspectRatio="xMidYMid meet" version="1.0"><defs><clipPath id="a3362206d2"><path d="M 11.765625 11.765625 L 798.515625 11.765625 L 798.515625 798.515625 L 11.765625 798.515625 Z M 11.765625 11.765625 " clip-rule="nonzero"/></clipPath></defs><g clip-path="url(#a3362206d2)"><path fill="#000000" d="M 405.140625 11.765625 C 398.703125 11.765625 392.269531 11.925781 385.839844 12.242188 C 379.410156 12.554688 372.992188 13.03125 366.585938 13.660156 C 360.175781 14.292969 353.789062 15.078125 347.421875 16.023438 C 341.054688 16.96875 334.710938 18.070312 328.398438 19.324219 C 322.082031 20.582031 315.804688 21.992188 309.558594 23.554688 C 303.3125 25.121094 297.113281 26.835938 290.949219 28.707031 C 284.789062 30.574219 278.679688 32.59375 272.617188 34.761719 C 266.554688 36.929688 260.550781 39.246094 254.601562 41.710938 C 248.65625 44.175781 242.773438 46.78125 236.953125 49.535156 C 231.132812 52.289062 225.382812 55.179688 219.707031 58.214844 C 214.027344 61.25 208.429688 64.421875 202.90625 67.734375 C 197.382812 71.042969 191.945312 74.484375 186.59375 78.0625 C 181.242188 81.640625 175.980469 85.34375 170.808594 89.179688 C 165.636719 93.015625 160.5625 96.972656 155.585938 101.058594 C 150.609375 105.144531 145.738281 109.347656 140.96875 113.671875 C 136.195312 117.992188 131.535156 122.429688 126.984375 126.984375 C 122.429688 131.535156 117.992188 136.195312 113.671875 140.96875 C 109.347656 145.738281 105.144531 150.609375 101.058594 155.585938 C 96.972656 160.5625 93.015625 165.636719 89.179688 170.808594 C 85.34375 175.980469 81.640625 181.242188 78.0625 186.59375 C 74.484375 191.945312 71.042969 197.382812 67.734375 202.90625 C 64.421875 208.429688 61.25 214.027344 58.214844 219.707031 C 55.179688 225.382812 52.289062 231.132812 49.535156 236.953125 C 46.78125 242.773438 44.175781 248.65625 41.710938 254.601562 C 39.246094 260.550781 36.929688 266.554688 34.761719 272.617188 C 32.59375 278.679688 30.574219 284.789062 28.707031 290.949219 C 26.835938 297.113281 25.121094 303.3125 23.554688 309.558594 C 21.992188 315.804688 20.582031 322.082031 19.324219 328.398438 C 18.070312 334.710938 16.96875 341.054688 16.023438 347.421875 C 15.078125 353.789062 14.292969 360.175781 13.660156 366.585938 C 13.03125 372.992188 12.554688 379.410156 12.242188 385.839844 C 11.925781 392.269531 11.765625 398.703125 11.765625 405.140625 C 11.765625 411.578125 11.925781 418.011719 12.242188 424.445312 C 12.554688 430.875 13.03125 437.292969 13.660156 443.699219 C 14.292969 450.105469 15.078125 456.492188 16.023438 462.863281 C 16.96875 469.230469 18.070312 475.570312 19.324219 481.886719 C 20.582031 488.199219 21.992188 494.480469 23.554688 500.722656 C 25.121094 506.96875 26.835938 513.171875 28.707031 519.332031 C 30.574219 525.492188 32.59375 531.605469 34.761719 537.664062 C 36.929688 543.726562 39.246094 549.730469 41.710938 555.679688 C 44.175781 561.628906 46.78125 567.511719 49.535156 573.332031 C 52.289062 579.152344 55.179688 584.898438 58.214844 590.578125 C 61.25 596.253906 64.421875 601.855469 67.734375 607.375 C 71.042969 612.898438 74.484375 618.335938 78.0625 623.6875 C 81.640625 629.042969 85.34375 634.304688 89.179688 639.476562 C 93.015625 644.644531 96.972656 649.71875 101.058594 654.695312 C 105.144531 659.671875 109.347656 664.546875 113.671875 669.316406 C 117.992188 674.085938 122.429688 678.746094 126.984375 683.300781 C 131.535156 687.851562 136.195312 692.289062 140.96875 696.613281 C 145.738281 700.9375 150.609375 705.140625 155.585938 709.222656 C 160.5625 713.308594 165.636719 717.269531 170.808594 721.101562 C 175.980469 724.9375 181.242188 728.644531 186.59375 732.222656 C 191.945312 735.796875 197.382812 739.242188 202.90625 742.550781 C 208.429688 745.859375 214.027344 749.03125 219.707031 752.066406 C 225.382812 755.101562 231.132812 757.996094 236.953125 760.75 C 242.773438 763.5 248.65625 766.109375 254.601562 768.574219 C 260.550781 771.035156 266.554688 773.351562 272.617188 775.519531 C 278.679688 777.691406 284.789062 779.710938 290.949219 781.578125 C 297.113281 783.445312 303.3125 785.164062 309.558594 786.726562 C 315.804688 788.292969 322.082031 789.703125 328.398438 790.957031 C 334.710938 792.214844 341.054688 793.3125 347.421875 794.257812 C 353.789062 795.203125 360.175781 795.992188 366.585938 796.621094 C 372.992188 797.253906 379.410156 797.726562 385.839844 798.042969 C 392.269531 798.359375 398.703125 798.515625 405.140625 798.515625 C 411.578125 798.515625 418.011719 798.359375 424.445312 798.042969 C 430.875 797.726562 437.292969 797.253906 443.699219 796.621094 C 450.105469 795.992188 456.492188 795.203125 462.863281 794.257812 C 469.230469 793.3125 475.570312 792.214844 481.886719 790.957031 C 488.199219 789.703125 494.480469 788.292969 500.722656 786.726562 C 506.96875 785.164062 513.171875 783.445312 519.332031 781.578125 C 525.492188 779.710938 531.605469 777.691406 537.664062 775.519531 C 543.726562 773.351562 549.730469 771.035156 555.679688 768.574219 C 561.628906 766.109375 567.511719 763.5 573.332031 760.75 C 579.152344 757.996094 584.898438 755.101562 590.578125 752.066406 C 596.253906 749.03125 601.855469 745.859375 607.375 742.550781 C 612.898438 739.242188 618.335938 735.796875 623.6875 732.222656 C 629.042969 728.644531 634.304688 724.9375 639.476562 721.101562 C 644.644531 717.269531 649.71875 713.308594 654.695312 709.222656 C 659.671875 705.140625 664.546875 700.9375 669.316406 696.613281 C 674.085938 692.289062 678.746094 687.851562 683.300781 683.300781 C 687.851562 678.746094 692.289062 674.085938 696.613281 669.316406 C 700.9375 664.546875 705.140625 659.671875 709.222656 654.695312 C 713.308594 649.71875 717.269531 644.644531 721.101562 639.476562 C 724.9375 634.304688 728.644531 629.042969 732.222656 623.6875 C 735.796875 618.335938 739.242188 612.898438 742.550781 607.375 C 745.859375 601.855469 749.03125 596.253906 752.066406 590.578125 C 755.101562 584.898438 757.996094 579.152344 760.75 573.332031 C 763.5 567.511719 766.109375 561.628906 768.574219 555.679688 C 771.035156 549.730469 773.351562 543.726562 775.519531 537.664062 C 777.691406 531.605469 779.710938 525.492188 781.578125 519.332031 C 783.445312 513.171875 785.164062 506.96875 786.726562 500.722656 C 788.292969 494.480469 789.703125 488.199219 790.957031 481.886719 C 792.214844 475.570312 793.3125 469.230469 794.257812 462.863281 C 795.203125 456.492188 795.992188 450.105469 796.621094 443.699219 C 797.253906 437.292969 797.726562 430.875 798.042969 424.445312 C 798.359375 418.011719 798.515625 411.578125 798.515625 405.140625 C 798.515625 398.703125 798.359375 392.269531 798.042969 385.839844 C 797.726562 379.410156 797.253906 372.992188 796.621094 366.585938 C 795.992188 360.175781 795.203125 353.789062 794.257812 347.421875 C 793.3125 341.054688 792.214844 334.710938 790.957031 328.398438 C 789.703125 322.082031 788.292969 315.804688 786.726562 309.558594 C 785.164062 303.3125 783.445312 297.113281 781.578125 290.949219 C 779.710938 284.789062 777.691406 278.679688 775.519531 272.617188 C 773.351562 266.554688 771.035156 260.550781 768.574219 254.601562 C 766.109375 248.65625 763.5 242.773438 760.75 236.953125 C 757.996094 231.132812 755.101562 225.382812 752.066406 219.707031 C 749.03125 214.027344 745.859375 208.429688 742.550781 202.90625 C 739.242188 197.382812 735.796875 191.945312 732.222656 186.59375 C 728.644531 181.242188 724.9375 175.980469 721.101562 170.808594 C 717.269531 165.636719 713.308594 160.5625 709.222656 155.585938 C 705.140625 150.609375 700.9375 145.738281 696.613281 140.96875 C 692.289062 136.195312 687.851562 131.535156 683.300781 126.984375 C 678.746094 122.429688 674.085938 117.992188 669.316406 113.671875 C 664.546875 109.347656 659.671875 105.144531 654.695312 101.058594 C 649.71875 96.972656 644.644531 93.015625 639.476562 89.179688 C 634.304688 85.34375 629.042969 81.640625 623.6875 78.0625 C 618.335938 74.484375 612.898438 71.042969 607.375 67.734375 C 601.855469 64.421875 596.253906 61.25 590.578125 58.214844 C 584.898438 55.179688 579.152344 52.289062 573.332031 49.535156 C 567.511719 46.78125 561.628906 44.175781 555.679688 41.710938 C 549.730469 39.246094 543.726562 36.929688 537.664062 34.761719 C 531.605469 32.59375 525.492188 30.574219 519.332031 28.707031 C 513.171875 26.835938 506.96875 25.121094 500.722656 23.554688 C 494.480469 21.992188 488.199219 20.582031 481.886719 19.324219 C 475.570312 18.070312 469.230469 16.96875 462.863281 16.023438 C 456.492188 15.078125 450.105469 14.292969 443.699219 13.660156 C 437.292969 13.03125 430.875 12.554688 424.445312 12.242188 C 418.011719 11.925781 411.578125 11.765625 405.140625 11.765625 Z M 627.476562 554.625 L 179.03125 554.625 C 178.128906 554.625 177.226562 554.578125 176.332031 554.492188 C 175.433594 554.402344 174.542969 554.269531 173.65625 554.09375 C 172.773438 553.917969 171.898438 553.699219 171.035156 553.4375 C 170.171875 553.175781 169.324219 552.875 168.492188 552.527344 C 167.660156 552.183594 166.84375 551.796875 166.050781 551.371094 C 165.253906 550.949219 164.480469 550.484375 163.730469 549.984375 C 162.980469 549.480469 162.257812 548.945312 161.5625 548.375 C 160.863281 547.800781 160.195312 547.195312 159.558594 546.558594 C 158.921875 545.921875 158.316406 545.253906 157.742188 544.554688 C 157.171875 543.859375 156.636719 543.136719 156.132812 542.386719 C 155.632812 541.636719 155.171875 540.863281 154.746094 540.066406 C 154.320312 539.273438 153.933594 538.457031 153.589844 537.625 C 153.246094 536.792969 152.941406 535.945312 152.679688 535.082031 C 152.417969 534.21875 152.199219 533.34375 152.023438 532.460938 C 151.847656 531.574219 151.714844 530.683594 151.625 529.785156 C 151.539062 528.890625 151.492188 527.988281 151.492188 527.085938 C 151.492188 526.1875 151.539062 525.285156 151.625 524.390625 C 151.714844 523.492188 151.847656 522.601562 152.023438 521.714844 C 152.199219 520.832031 152.417969 519.957031 152.679688 519.09375 C 152.941406 518.230469 153.246094 517.382812 153.589844 516.550781 C 153.933594 515.71875 154.320312 514.902344 154.746094 514.105469 C 155.171875 513.3125 155.632812 512.539062 156.132812 511.789062 C 156.636719 511.039062 157.171875 510.316406 157.742188 509.617188 C 158.316406 508.921875 158.921875 508.253906 159.558594 507.617188 C 160.195312 506.980469 160.863281 506.375 161.5625 505.800781 C 162.257812 505.230469 162.980469 504.691406 163.730469 504.191406 C 164.480469 503.691406 165.253906 503.226562 166.050781 502.804688 C 166.84375 502.378906 167.660156 501.992188 168.492188 501.648438 C 169.324219 501.300781 170.171875 501 171.035156 500.738281 C 171.898438 500.476562 172.773438 500.257812 173.65625 500.082031 C 174.542969 499.90625 175.433594 499.773438 176.332031 499.683594 C 177.226562 499.597656 178.128906 499.550781 179.03125 499.550781 L 627.476562 499.550781 C 628.378906 499.550781 629.277344 499.597656 630.175781 499.683594 C 631.074219 499.773438 631.964844 499.90625 632.847656 500.082031 C 633.734375 500.257812 634.605469 500.476562 635.46875 500.738281 C 636.332031 501 637.179688 501.300781 638.015625 501.648438 C 638.847656 501.992188 639.664062 502.378906 640.457031 502.804688 C 641.253906 503.226562 642.027344 503.691406 642.773438 504.191406 C 643.523438 504.691406 644.25 505.230469 644.945312 505.800781 C 645.644531 506.375 646.308594 506.980469 646.949219 507.617188 C 647.585938 508.253906 648.191406 508.921875 648.761719 509.617188 C 649.335938 510.316406 649.871094 511.039062 650.371094 511.789062 C 650.875 512.539062 651.335938 513.3125 651.761719 514.105469 C 652.1875 514.902344 652.570312 515.71875 652.917969 516.550781 C 653.261719 517.382812 653.566406 518.230469 653.828125 519.09375 C 654.089844 519.957031 654.308594 520.832031 654.484375 521.714844 C 654.660156 522.601562 654.792969 523.492188 654.878906 524.390625 C 654.96875 525.285156 655.011719 526.1875 655.011719 527.085938 C 655.011719 527.988281 654.96875 528.890625 654.878906 529.785156 C 654.792969 530.683594 654.660156 531.574219 654.484375 532.460938 C 654.308594 533.34375 654.089844 534.21875 653.828125 535.082031 C 653.566406 535.945312 653.261719 536.792969 652.917969 537.625 C 652.570312 538.457031 652.1875 539.273438 651.761719 540.066406 C 651.335938 540.863281 650.875 541.636719 650.371094 542.386719 C 649.871094 543.136719 649.335938 543.859375 648.761719 544.554688 C 648.191406 545.253906 647.585938 545.921875 646.949219 546.558594 C 646.308594 547.195312 645.644531 547.800781 644.945312 548.375 C 644.25 548.945312 643.523438 549.480469 642.773438 549.984375 C 642.027344 550.484375 641.253906 550.949219 640.457031 551.371094 C 639.664062 551.796875 638.847656 552.183594 638.015625 552.527344 C 637.179688 552.875 636.332031 553.175781 635.46875 553.4375 C 634.605469 553.699219 633.734375 553.917969 632.847656 554.09375 C 631.964844 554.269531 631.074219 554.402344 630.175781 554.492188 C 629.277344 554.578125 628.378906 554.625 627.476562 554.625 Z M 627.476562 436.613281 L 179.03125 436.613281 C 178.128906 436.613281 177.226562 436.566406 176.332031 436.480469 C 175.433594 436.390625 174.542969 436.257812 173.65625 436.082031 C 172.773438 435.90625 171.898438 435.6875 171.035156 435.425781 C 170.171875 435.164062 169.324219 434.859375 168.492188 434.515625 C 167.660156 434.171875 166.84375 433.785156 166.050781 433.359375 C 165.253906 432.933594 164.480469 432.472656 163.730469 431.972656 C 162.980469 431.46875 162.257812 430.933594 161.5625 430.359375 C 160.863281 429.789062 160.195312 429.183594 159.558594 428.546875 C 158.921875 427.910156 158.316406 427.242188 157.742188 426.542969 C 157.171875 425.847656 156.636719 425.125 156.132812 424.375 C 155.632812 423.625 155.171875 422.851562 154.746094 422.054688 C 154.320312 421.261719 153.933594 420.445312 153.589844 419.613281 C 153.246094 418.78125 152.941406 417.933594 152.679688 417.070312 C 152.417969 416.207031 152.199219 415.332031 152.023438 414.449219 C 151.847656 413.5625 151.714844 412.671875 151.625 411.773438 C 151.539062 410.875 151.492188 409.976562 151.492188 409.074219 C 151.492188 408.171875 151.539062 407.273438 151.625 406.375 C 151.714844 405.480469 151.847656 404.585938 152.023438 403.703125 C 152.199219 402.820312 152.417969 401.945312 152.679688 401.082031 C 152.941406 400.21875 153.246094 399.371094 153.589844 398.539062 C 153.933594 397.703125 154.320312 396.890625 154.746094 396.09375 C 155.171875 395.300781 155.632812 394.527344 156.132812 393.777344 C 156.636719 393.027344 157.171875 392.304688 157.742188 391.605469 C 158.316406 390.910156 158.921875 390.242188 159.558594 389.605469 C 160.195312 388.964844 160.863281 388.363281 161.5625 387.789062 C 162.257812 387.21875 162.980469 386.679688 163.730469 386.179688 C 164.480469 385.679688 165.253906 385.214844 166.050781 384.789062 C 166.84375 384.367188 167.660156 383.980469 168.492188 383.636719 C 169.324219 383.289062 170.171875 382.988281 171.035156 382.726562 C 171.898438 382.464844 172.773438 382.242188 173.65625 382.066406 C 174.542969 381.890625 175.433594 381.761719 176.332031 381.671875 C 177.226562 381.582031 178.128906 381.539062 179.03125 381.539062 L 627.476562 381.539062 C 628.378906 381.539062 629.277344 381.582031 630.175781 381.671875 C 631.074219 381.761719 631.964844 381.890625 632.847656 382.066406 C 633.734375 382.242188 634.605469 382.464844 635.46875 382.726562 C 636.332031 382.988281 637.179688 383.289062 638.015625 383.636719 C 638.847656 383.980469 639.664062 384.367188 640.457031 384.789062 C 641.253906 385.214844 642.027344 385.679688 642.773438 386.179688 C 643.523438 386.679688 644.25 387.21875 644.945312 387.789062 C 645.644531 388.363281 646.308594 388.964844 646.949219 389.605469 C 647.585938 390.242188 648.191406 390.910156 648.761719 391.605469 C 649.335938 392.304688 649.871094 393.027344 650.371094 393.777344 C 650.875 394.527344 651.335938 395.300781 651.761719 396.09375 C 652.1875 396.890625 652.570312 397.703125 652.917969 398.539062 C 653.261719 399.371094 653.566406 400.21875 653.828125 401.082031 C 654.089844 401.945312 654.308594 402.820312 654.484375 403.703125 C 654.660156 404.585938 654.792969 405.480469 654.878906 406.375 C 654.96875 407.273438 655.011719 408.171875 655.011719 409.074219 C 655.011719 409.976562 654.96875 410.875 654.878906 411.773438 C 654.792969 412.671875 654.660156 413.5625 654.484375 414.449219 C 654.308594 415.332031 654.089844 416.207031 653.828125 417.070312 C 653.566406 417.933594 653.261719 418.78125 652.917969 419.613281 C 652.570312 420.445312 652.1875 421.261719 651.761719 422.054688 C 651.335938 422.851562 650.875 423.625 650.371094 424.375 C 649.871094 425.125 649.335938 425.847656 648.761719 426.542969 C 648.191406 427.242188 647.585938 427.910156 646.949219 428.546875 C 646.308594 429.183594 645.644531 429.789062 644.945312 430.359375 C 644.25 430.933594 643.523438 431.46875 642.773438 431.972656 C 642.027344 432.472656 641.253906 432.933594 640.457031 433.359375 C 639.664062 433.785156 638.847656 434.171875 638.015625 434.515625 C 637.179688 434.859375 636.332031 435.164062 635.46875 435.425781 C 634.605469 435.6875 633.734375 435.90625 632.847656 436.082031 C 631.964844 436.257812 631.074219 436.390625 630.175781 436.480469 C 629.277344 436.566406 628.378906 436.613281 627.476562 436.613281 Z M 627.476562 318.597656 L 179.03125 318.597656 C 178.128906 318.597656 177.226562 318.554688 176.332031 318.464844 C 175.433594 318.378906 174.542969 318.246094 173.65625 318.070312 C 172.773438 317.894531 171.898438 317.675781 171.035156 317.414062 C 170.171875 317.152344 169.324219 316.847656 168.492188 316.503906 C 167.660156 316.15625 166.84375 315.773438 166.050781 315.347656 C 165.253906 314.921875 164.480469 314.460938 163.730469 313.957031 C 162.980469 313.457031 162.257812 312.921875 161.5625 312.347656 C 160.863281 311.777344 160.195312 311.171875 159.558594 310.535156 C 158.921875 309.894531 158.316406 309.230469 157.742188 308.53125 C 157.171875 307.835938 156.636719 307.109375 156.132812 306.359375 C 155.632812 305.609375 155.171875 304.839844 154.746094 304.042969 C 154.320312 303.246094 153.933594 302.433594 153.589844 301.601562 C 153.246094 300.765625 152.941406 299.917969 152.679688 299.054688 C 152.417969 298.191406 152.199219 297.320312 152.023438 296.433594 C 151.847656 295.550781 151.714844 294.660156 151.625 293.761719 C 151.539062 292.863281 151.492188 291.964844 151.492188 291.0625 C 151.492188 290.160156 151.539062 289.261719 151.625 288.363281 C 151.714844 287.464844 151.847656 286.574219 152.023438 285.691406 C 152.199219 284.804688 152.417969 283.933594 152.679688 283.070312 C 152.941406 282.207031 153.246094 281.359375 153.589844 280.523438 C 153.933594 279.691406 154.320312 278.878906 154.746094 278.082031 C 155.171875 277.285156 155.632812 276.515625 156.132812 275.765625 C 156.636719 275.015625 157.171875 274.292969 157.742188 273.59375 C 158.316406 272.898438 158.921875 272.230469 159.558594 271.589844 C 160.195312 270.953125 160.863281 270.347656 161.5625 269.777344 C 162.257812 269.203125 162.980469 268.667969 163.730469 268.167969 C 164.480469 267.667969 165.253906 267.203125 166.050781 266.777344 C 166.84375 266.351562 167.660156 265.96875 168.492188 265.621094 C 169.324219 265.277344 170.171875 264.972656 171.035156 264.710938 C 171.898438 264.449219 172.773438 264.230469 173.65625 264.054688 C 174.542969 263.878906 175.433594 263.746094 176.332031 263.660156 C 177.226562 263.570312 178.128906 263.527344 179.03125 263.527344 L 627.476562 263.527344 C 628.378906 263.527344 629.277344 263.570312 630.175781 263.660156 C 631.074219 263.746094 631.964844 263.878906 632.847656 264.054688 C 633.734375 264.230469 634.605469 264.449219 635.46875 264.710938 C 636.332031 264.972656 637.179688 265.277344 638.015625 265.621094 C 638.847656 265.96875 639.664062 266.351562 640.457031 266.777344 C 641.253906 267.203125 642.027344 267.667969 642.773438 268.167969 C 643.523438 268.667969 644.25 269.203125 644.945312 269.777344 C 645.644531 270.347656 646.308594 270.953125 646.949219 271.589844 C 647.585938 272.230469 648.191406 272.898438 648.761719 273.59375 C 649.335938 274.292969 649.871094 275.015625 650.371094 275.765625 C 650.875 276.515625 651.335938 277.285156 651.761719 278.082031 C 652.1875 278.878906 652.570312 279.691406 652.917969 280.523438 C 653.261719 281.359375 653.566406 282.207031 653.828125 283.070312 C 654.089844 283.933594 654.308594 284.804688 654.484375 285.691406 C 654.660156 286.574219 654.792969 287.464844 654.878906 288.363281 C 654.96875 289.261719 655.011719 290.160156 655.011719 291.0625 C 655.011719 291.964844 654.96875 292.863281 654.878906 293.761719 C 654.792969 294.660156 654.660156 295.550781 654.484375 296.433594 C 654.308594 297.320312 654.089844 298.191406 653.828125 299.054688 C 653.566406 299.917969 653.261719 300.765625 652.917969 301.601562 C 652.570312 302.433594 652.1875 303.246094 651.761719 304.042969 C 651.335938 304.839844 650.875 305.609375 650.371094 306.359375 C 649.871094 307.109375 649.335938 307.835938 648.761719 308.53125 C 648.191406 309.230469 647.585938 309.894531 646.949219 310.535156 C 646.308594 311.171875 645.644531 311.777344 644.945312 312.347656 C 644.25 312.921875 643.523438 313.457031 642.773438 313.957031 C 642.027344 314.460938 641.253906 314.921875 640.457031 315.347656 C 639.664062 315.773438 638.847656 316.15625 638.015625 316.503906 C 637.179688 316.847656 636.332031 317.152344 635.46875 317.414062 C 634.605469 317.675781 633.734375 317.894531 632.847656 318.070312 C 631.964844 318.246094 631.074219 318.378906 630.175781 318.464844 C 629.277344 318.554688 628.378906 318.597656 627.476562 318.597656 Z M 627.476562 318.597656 " fill-opacity="1" fill-rule="nonzero"/></g></svg>