<svg xmlns="http://www.w3.org/2000/svg" xmlns:xlink="http://www.w3.org/1999/xlink" width="1080" zoomAndPan="magnify" viewBox="0 0 810 809.999993" height="1080" preserveAspectRatio="xMidYMid meet" version="1.0"><defs><clipPath id="77763507ac"><path d="M 11.765625 11.765625 L 798.515625 11.765625 L 798.515625 798.515625 L 11.765625 798.515625 Z M 11.765625 11.765625 " clip-rule="nonzero"/></clipPath></defs><g clip-path="url(#77763507ac)"><path fill="#ffffff" d="M 404.996094 11.765625 C 398.558594 11.765625 392.128906 11.925781 385.699219 12.242188 C 379.273438 12.554688 372.855469 13.03125 366.453125 13.660156 C 360.046875 14.289062 353.664062 15.078125 347.296875 16.023438 C 340.929688 16.96875 334.59375 18.066406 328.28125 19.324219 C 321.96875 20.578125 315.691406 21.988281 309.449219 23.550781 C 303.207031 25.113281 297.003906 26.832031 290.847656 28.699219 C 284.6875 30.566406 278.578125 32.585938 272.519531 34.753906 C 266.460938 36.921875 260.457031 39.238281 254.511719 41.699219 C 248.566406 44.160156 242.6875 46.769531 236.867188 49.519531 C 231.050781 52.273438 225.304688 55.164062 219.628906 58.199219 C 213.953125 61.230469 208.355469 64.402344 202.835938 67.710938 C 197.316406 71.019531 191.878906 74.460938 186.527344 78.039062 C 181.179688 81.613281 175.917969 85.316406 170.75 89.152344 C 165.582031 92.984375 160.507812 96.941406 155.535156 101.023438 C 150.558594 105.109375 145.6875 109.308594 140.917969 113.632812 C 136.152344 117.953125 131.492188 122.390625 126.941406 126.941406 C 122.390625 131.492188 117.953125 136.152344 113.632812 140.917969 C 109.308594 145.6875 105.109375 150.558594 101.023438 155.535156 C 96.941406 160.507812 92.984375 165.582031 89.152344 170.75 C 85.316406 175.917969 81.613281 181.179688 78.039062 186.527344 C 74.460938 191.878906 71.019531 197.316406 67.710938 202.835938 C 64.402344 208.355469 61.230469 213.953125 58.199219 219.628906 C 55.164062 225.304688 52.273438 231.050781 49.519531 236.867188 C 46.769531 242.6875 44.160156 248.566406 41.699219 254.511719 C 39.238281 260.457031 36.921875 266.460938 34.753906 272.519531 C 32.585938 278.578125 30.566406 284.6875 28.699219 290.847656 C 26.832031 297.003906 25.113281 303.207031 23.550781 309.449219 C 21.988281 315.691406 20.578125 321.96875 19.324219 328.28125 C 18.066406 334.59375 16.96875 340.929688 16.023438 347.296875 C 15.078125 353.664062 14.289062 360.046875 13.660156 366.453125 C 13.03125 372.855469 12.554688 379.273438 12.242188 385.699219 C 11.925781 392.128906 11.765625 398.558594 11.765625 404.996094 C 11.765625 411.429688 11.925781 417.863281 12.242188 424.289062 C 12.554688 430.71875 13.03125 437.132812 13.660156 443.539062 C 14.289062 449.941406 15.078125 456.328125 16.023438 462.695312 C 16.96875 469.058594 18.066406 475.398438 19.324219 481.710938 C 20.578125 488.023438 21.988281 494.300781 23.550781 500.542969 C 25.113281 506.785156 26.832031 512.984375 28.699219 519.144531 C 30.566406 525.300781 32.585938 531.410156 34.753906 537.46875 C 36.921875 543.527344 39.238281 549.53125 41.699219 555.476562 C 44.160156 561.421875 46.769531 567.304688 49.519531 573.121094 C 52.273438 578.941406 55.164062 584.6875 58.199219 590.363281 C 61.230469 596.039062 64.402344 601.636719 67.710938 607.15625 C 71.019531 612.675781 74.460938 618.109375 78.039062 623.460938 C 81.613281 628.8125 85.316406 634.070312 89.152344 639.242188 C 92.984375 644.410156 96.941406 649.480469 101.023438 654.457031 C 105.109375 659.429688 109.308594 664.304688 113.632812 669.070312 C 117.953125 673.839844 122.390625 678.5 126.941406 683.050781 C 131.492188 687.601562 136.152344 692.035156 140.917969 696.359375 C 145.6875 700.679688 150.558594 704.882812 155.535156 708.964844 C 160.507812 713.046875 165.582031 717.003906 170.75 720.839844 C 175.917969 724.671875 181.179688 728.378906 186.527344 731.953125 C 191.878906 735.527344 197.316406 738.96875 202.835938 742.277344 C 208.355469 745.585938 213.953125 748.757812 219.628906 751.792969 C 225.304688 754.824219 231.050781 757.71875 236.867188 760.46875 C 242.6875 763.222656 248.566406 765.828125 254.511719 768.289062 C 260.457031 770.753906 266.460938 773.070312 272.519531 775.238281 C 278.578125 777.40625 284.6875 779.421875 290.847656 781.292969 C 297.003906 783.160156 303.207031 784.875 309.449219 786.4375 C 315.691406 788.003906 321.96875 789.414062 328.28125 790.667969 C 334.589844 791.921875 340.929688 793.023438 347.296875 793.96875 C 353.664062 794.910156 360.046875 795.699219 366.453125 796.328125 C 372.855469 796.960938 379.273438 797.433594 385.699219 797.75 C 392.128906 798.066406 398.558594 798.222656 404.996094 798.222656 C 411.429688 798.222656 417.863281 798.066406 424.289062 797.75 C 430.71875 797.433594 437.132812 796.960938 443.539062 796.328125 C 449.941406 795.699219 456.328125 794.910156 462.695312 793.96875 C 469.058594 793.023438 475.398438 791.921875 481.710938 790.667969 C 488.023438 789.414062 494.300781 788.003906 500.542969 786.4375 C 506.785156 784.875 512.984375 783.160156 519.144531 781.292969 C 525.300781 779.421875 531.410156 777.40625 537.46875 775.238281 C 543.527344 773.070312 549.53125 770.753906 555.476562 768.289062 C 561.421875 765.828125 567.304688 763.222656 573.121094 760.46875 C 578.941406 757.71875 584.6875 754.824219 590.363281 751.792969 C 596.039062 748.757812 601.636719 745.585938 607.15625 742.277344 C 612.675781 738.96875 618.109375 735.527344 623.460938 731.953125 C 628.8125 728.378906 634.070312 724.671875 639.242188 720.839844 C 644.410156 717.003906 649.480469 713.046875 654.457031 708.964844 C 659.429688 704.882812 664.304688 700.679688 669.070312 696.359375 C 673.839844 692.035156 678.5 687.601562 683.050781 683.050781 C 687.601562 678.5 692.035156 673.839844 696.359375 669.070312 C 700.679688 664.304688 704.882812 659.429688 708.964844 654.457031 C 713.046875 649.480469 717.003906 644.410156 720.839844 639.242188 C 724.671875 634.070312 728.378906 628.8125 731.953125 623.460938 C 735.527344 618.109375 738.96875 612.675781 742.277344 607.15625 C 745.585938 601.636719 748.757812 596.039062 751.792969 590.363281 C 754.824219 584.6875 757.71875 578.941406 760.46875 573.121094 C 763.222656 567.304688 765.828125 561.421875 768.289062 555.476562 C 770.753906 549.53125 773.070312 543.527344 775.238281 537.46875 C 777.40625 531.410156 779.421875 525.300781 781.292969 519.144531 C 783.160156 512.984375 784.875 506.785156 786.4375 500.542969 C 788.003906 494.300781 789.414062 488.023438 790.667969 481.710938 C 791.921875 475.398438 793.023438 469.058594 793.96875 462.695312 C 794.910156 456.328125 795.699219 449.941406 796.328125 443.539062 C 796.960938 437.132812 797.433594 430.71875 797.75 424.289062 C 798.066406 417.863281 798.222656 411.429688 798.222656 404.996094 C 798.222656 398.558594 798.066406 392.128906 797.75 385.699219 C 797.433594 379.273438 796.960938 372.855469 796.328125 366.453125 C 795.699219 360.046875 794.910156 353.664062 793.96875 347.296875 C 793.023438 340.929688 791.921875 334.59375 790.667969 328.28125 C 789.414062 321.96875 788.003906 315.691406 786.4375 309.449219 C 784.875 303.207031 783.160156 297.003906 781.292969 290.847656 C 779.421875 284.6875 777.40625 278.578125 775.238281 272.519531 C 773.070312 266.460938 770.753906 260.457031 768.289062 254.511719 C 765.828125 248.566406 763.222656 242.6875 760.46875 236.867188 C 757.71875 231.050781 754.824219 225.304688 751.792969 219.628906 C 748.757812 213.953125 745.585938 208.355469 742.277344 202.835938 C 738.96875 197.316406 735.527344 191.878906 731.953125 186.527344 C 728.378906 181.179688 724.671875 175.917969 720.839844 170.75 C 717.003906 165.582031 713.046875 160.507812 708.964844 155.535156 C 704.882812 150.558594 700.679688 145.6875 696.359375 140.917969 C 692.035156 136.152344 687.601562 131.492188 683.050781 126.941406 C 678.5 122.390625 673.839844 117.953125 669.070312 113.632812 C 664.304688 109.308594 659.429688 105.109375 654.457031 101.023438 C 649.480469 96.941406 644.410156 92.984375 639.242188 89.152344 C 634.070312 85.316406 628.8125 81.613281 623.460938 78.039062 C 618.109375 74.460938 612.675781 71.019531 607.15625 67.710938 C 601.636719 64.402344 596.039062 61.230469 590.363281 58.199219 C 584.6875 55.164062 578.941406 52.273438 573.121094 49.519531 C 567.304688 46.769531 561.421875 44.160156 555.476562 41.699219 C 549.53125 39.238281 543.527344 36.921875 537.46875 34.753906 C 531.410156 32.585938 525.300781 30.566406 519.144531 28.699219 C 512.984375 26.832031 506.785156 25.113281 500.542969 23.550781 C 494.300781 21.988281 488.023438 20.578125 481.710938 19.324219 C 475.398438 18.066406 469.058594 16.96875 462.695312 16.023438 C 456.328125 15.078125 449.941406 14.289062 443.539062 13.660156 C 437.132812 13.03125 430.71875 12.554688 424.289062 12.242188 C 417.863281 11.925781 411.429688 11.765625 404.996094 11.765625 Z M 627.246094 554.421875 L 178.96875 554.421875 C 178.066406 554.421875 177.167969 554.378906 176.269531 554.289062 C 175.371094 554.199219 174.480469 554.070312 173.597656 553.894531 C 172.714844 553.71875 171.839844 553.5 170.976562 553.238281 C 170.113281 552.976562 169.265625 552.671875 168.433594 552.328125 C 167.601562 551.980469 166.785156 551.597656 165.992188 551.171875 C 165.195312 550.746094 164.425781 550.285156 163.675781 549.78125 C 162.925781 549.28125 162.203125 548.746094 161.503906 548.171875 C 160.808594 547.601562 160.140625 546.996094 159.503906 546.359375 C 158.867188 545.722656 158.261719 545.054688 157.691406 544.359375 C 157.117188 543.660156 156.582031 542.9375 156.082031 542.1875 C 155.578125 541.4375 155.117188 540.667969 154.691406 539.871094 C 154.265625 539.078125 153.882812 538.261719 153.535156 537.429688 C 153.191406 536.597656 152.886719 535.75 152.625 534.886719 C 152.363281 534.023438 152.144531 533.148438 151.96875 532.265625 C 151.792969 531.382812 151.664062 530.492188 151.574219 529.59375 C 151.484375 528.695312 151.441406 527.796875 151.441406 526.894531 C 151.441406 525.996094 151.484375 525.09375 151.574219 524.199219 C 151.664062 523.300781 151.792969 522.410156 151.96875 521.527344 C 152.144531 520.640625 152.363281 519.769531 152.625 518.90625 C 152.886719 518.042969 153.191406 517.195312 153.535156 516.363281 C 153.882812 515.527344 154.265625 514.714844 154.691406 513.921875 C 155.117188 513.125 155.578125 512.351562 156.082031 511.601562 C 156.582031 510.855469 157.117188 510.128906 157.691406 509.433594 C 158.261719 508.738281 158.867188 508.070312 159.503906 507.433594 C 160.140625 506.792969 160.808594 506.191406 161.503906 505.617188 C 162.203125 505.046875 162.925781 504.507812 163.675781 504.007812 C 164.425781 503.507812 165.195312 503.046875 165.992188 502.621094 C 166.785156 502.195312 167.601562 501.808594 168.433594 501.464844 C 169.265625 501.121094 170.113281 500.816406 170.976562 500.554688 C 171.839844 500.292969 172.714844 500.074219 173.597656 499.898438 C 174.480469 499.722656 175.371094 499.589844 176.269531 499.503906 C 177.167969 499.414062 178.066406 499.371094 178.96875 499.371094 L 627.246094 499.371094 C 628.148438 499.371094 629.046875 499.414062 629.945312 499.503906 C 630.84375 499.589844 631.734375 499.722656 632.617188 499.898438 C 633.503906 500.074219 634.375 500.292969 635.238281 500.554688 C 636.101562 500.816406 636.949219 501.121094 637.78125 501.464844 C 638.613281 501.808594 639.429688 502.195312 640.222656 502.621094 C 641.019531 503.046875 641.789062 503.507812 642.539062 504.007812 C 643.289062 504.507812 644.011719 505.046875 644.710938 505.617188 C 645.40625 506.191406 646.074219 506.792969 646.710938 507.433594 C 647.347656 508.070312 647.953125 508.738281 648.527344 509.433594 C 649.097656 510.128906 649.632812 510.855469 650.136719 511.601562 C 650.636719 512.351562 651.097656 513.125 651.523438 513.921875 C 651.949219 514.714844 652.332031 515.527344 652.679688 516.363281 C 653.023438 517.195312 653.328125 518.042969 653.589844 518.90625 C 653.851562 519.769531 654.070312 520.640625 654.246094 521.527344 C 654.421875 522.410156 654.554688 523.300781 654.640625 524.199219 C 654.730469 525.09375 654.773438 525.996094 654.773438 526.894531 C 654.773438 527.796875 654.730469 528.695312 654.640625 529.59375 C 654.554688 530.492188 654.421875 531.382812 654.246094 532.265625 C 654.070312 533.148438 653.851562 534.023438 653.589844 534.886719 C 653.328125 535.75 653.023438 536.597656 652.679688 537.429688 C 652.332031 538.261719 651.949219 539.078125 651.523438 539.871094 C 651.097656 540.667969 650.636719 541.4375 650.136719 542.1875 C 649.632812 542.9375 649.097656 543.660156 648.527344 544.359375 C 647.953125 545.054688 647.347656 545.722656 646.710938 546.359375 C 646.074219 546.996094 645.40625 547.601562 644.710938 548.171875 C 644.011719 548.746094 643.289062 549.28125 642.539062 549.78125 C 641.789062 550.285156 641.019531 550.746094 640.222656 551.171875 C 639.429688 551.597656 638.613281 551.980469 637.78125 552.328125 C 636.949219 552.671875 636.101562 552.976562 635.238281 553.238281 C 634.375 553.5 633.503906 553.71875 632.617188 553.894531 C 631.734375 554.070312 630.84375 554.199219 629.945312 554.289062 C 629.046875 554.378906 628.148438 554.421875 627.246094 554.421875 Z M 627.246094 436.453125 L 178.96875 436.453125 C 178.066406 436.453125 177.167969 436.410156 176.269531 436.320312 C 175.371094 436.234375 174.480469 436.101562 173.597656 435.925781 C 172.714844 435.75 171.839844 435.53125 170.976562 435.269531 C 170.113281 435.007812 169.265625 434.703125 168.433594 434.359375 C 167.601562 434.011719 166.785156 433.628906 165.992188 433.203125 C 165.195312 432.777344 164.425781 432.316406 163.675781 431.8125 C 162.925781 431.3125 162.203125 430.777344 161.503906 430.207031 C 160.808594 429.632812 160.140625 429.027344 159.503906 428.390625 C 158.867188 427.753906 158.261719 427.085938 157.691406 426.390625 C 157.117188 425.691406 156.582031 424.96875 156.082031 424.21875 C 155.578125 423.46875 155.117188 422.699219 154.691406 421.902344 C 154.265625 421.109375 153.882812 420.292969 153.535156 419.460938 C 153.191406 418.628906 152.886719 417.78125 152.625 416.917969 C 152.363281 416.054688 152.144531 415.179688 151.96875 414.296875 C 151.792969 413.414062 151.664062 412.523438 151.574219 411.625 C 151.484375 410.726562 151.441406 409.828125 151.441406 408.925781 C 151.441406 408.027344 151.484375 407.125 151.574219 406.230469 C 151.664062 405.332031 151.792969 404.441406 151.96875 403.558594 C 152.144531 402.671875 152.363281 401.800781 152.625 400.9375 C 152.886719 400.074219 153.191406 399.226562 153.535156 398.394531 C 153.882812 397.5625 154.265625 396.746094 154.691406 395.953125 C 155.117188 395.15625 155.578125 394.382812 156.082031 393.632812 C 156.582031 392.886719 157.117188 392.160156 157.691406 391.464844 C 158.261719 390.769531 158.867188 390.101562 159.503906 389.464844 C 160.140625 388.824219 160.808594 388.222656 161.503906 387.648438 C 162.203125 387.078125 162.925781 386.542969 163.675781 386.039062 C 164.425781 385.539062 165.195312 385.078125 165.992188 384.652344 C 166.785156 384.226562 167.601562 383.839844 168.433594 383.496094 C 169.265625 383.152344 170.113281 382.847656 170.976562 382.585938 C 171.839844 382.324219 172.714844 382.105469 173.597656 381.929688 C 174.480469 381.753906 175.371094 381.621094 176.269531 381.535156 C 177.167969 381.445312 178.066406 381.402344 178.96875 381.402344 L 627.246094 381.402344 C 628.148438 381.402344 629.046875 381.445312 629.945312 381.535156 C 630.84375 381.621094 631.734375 381.753906 632.617188 381.929688 C 633.503906 382.105469 634.375 382.324219 635.238281 382.585938 C 636.101562 382.847656 636.949219 383.152344 637.78125 383.496094 C 638.613281 383.839844 639.429688 384.226562 640.222656 384.652344 C 641.019531 385.078125 641.789062 385.539062 642.539062 386.039062 C 643.289062 386.542969 644.011719 387.078125 644.710938 387.648438 C 645.40625 388.222656 646.074219 388.824219 646.710938 389.464844 C 647.347656 390.101562 647.953125 390.769531 648.527344 391.464844 C 649.097656 392.160156 649.632812 392.886719 650.136719 393.632812 C 650.636719 394.382812 651.097656 395.15625 651.523438 395.953125 C 651.949219 396.746094 652.332031 397.5625 652.679688 398.394531 C 653.023438 399.226562 653.328125 400.074219 653.589844 400.9375 C 653.851562 401.800781 654.070312 402.671875 654.246094 403.558594 C 654.421875 404.441406 654.554688 405.332031 654.640625 406.230469 C 654.730469 407.125 654.773438 408.027344 654.773438 408.925781 C 654.773438 409.828125 654.730469 410.726562 654.640625 411.625 C 654.554688 412.523438 654.421875 413.414062 654.246094 414.296875 C 654.070312 415.179688 653.851562 416.054688 653.589844 416.917969 C 653.328125 417.78125 653.023438 418.628906 652.679688 419.460938 C 652.332031 420.292969 651.949219 421.109375 651.523438 421.902344 C 651.097656 422.699219 650.636719 423.46875 650.136719 424.21875 C 649.632812 424.96875 649.097656 425.691406 648.527344 426.390625 C 647.953125 427.085938 647.347656 427.753906 646.710938 428.390625 C 646.074219 429.027344 645.40625 429.632812 644.710938 430.207031 C 644.011719 430.777344 643.289062 431.3125 642.539062 431.8125 C 641.789062 432.316406 641.019531 432.777344 640.222656 433.203125 C 639.429688 433.628906 638.613281 434.011719 637.78125 434.359375 C 636.949219 434.703125 636.101562 435.007812 635.238281 435.269531 C 634.375 435.53125 633.503906 435.75 632.617188 435.925781 C 631.734375 436.101562 630.84375 436.234375 629.945312 436.320312 C 629.046875 436.410156 628.148438 436.453125 627.246094 436.453125 Z M 627.246094 318.484375 L 178.96875 318.484375 C 178.066406 318.484375 177.167969 318.441406 176.269531 318.351562 C 175.371094 318.265625 174.480469 318.132812 173.597656 317.957031 C 172.714844 317.78125 171.839844 317.5625 170.976562 317.300781 C 170.113281 317.039062 169.265625 316.734375 168.433594 316.390625 C 167.601562 316.042969 166.785156 315.660156 165.992188 315.234375 C 165.195312 314.808594 164.425781 314.347656 163.675781 313.847656 C 162.925781 313.34375 162.203125 312.808594 161.503906 312.238281 C 160.808594 311.664062 160.140625 311.058594 159.503906 310.421875 C 158.867188 309.785156 158.261719 309.117188 157.691406 308.421875 C 157.117188 307.722656 156.582031 307 156.082031 306.25 C 155.578125 305.5 155.117188 304.730469 154.691406 303.933594 C 154.265625 303.140625 153.882812 302.324219 153.535156 301.492188 C 153.191406 300.660156 152.886719 299.8125 152.625 298.949219 C 152.363281 298.085938 152.144531 297.214844 151.96875 296.328125 C 151.792969 295.445312 151.664062 294.554688 151.574219 293.65625 C 151.484375 292.757812 151.441406 291.859375 151.441406 290.957031 C 151.441406 290.058594 151.484375 289.15625 151.574219 288.261719 C 151.664062 287.363281 151.792969 286.472656 151.96875 285.589844 C 152.144531 284.703125 152.363281 283.832031 152.625 282.96875 C 152.886719 282.105469 153.191406 281.257812 153.535156 280.425781 C 153.882812 279.59375 154.265625 278.777344 154.691406 277.984375 C 155.117188 277.1875 155.578125 276.414062 156.082031 275.667969 C 156.582031 274.917969 157.117188 274.195312 157.691406 273.496094 C 158.261719 272.800781 158.867188 272.132812 159.503906 271.496094 C 160.140625 270.859375 160.808594 270.253906 161.503906 269.679688 C 162.203125 269.109375 162.925781 268.574219 163.675781 268.070312 C 164.425781 267.570312 165.195312 267.109375 165.992188 266.683594 C 166.785156 266.257812 167.601562 265.875 168.433594 265.527344 C 169.265625 265.183594 170.113281 264.878906 170.976562 264.617188 C 171.839844 264.355469 172.714844 264.136719 173.597656 263.960938 C 174.480469 263.785156 175.371094 263.652344 176.269531 263.566406 C 177.167969 263.476562 178.066406 263.433594 178.96875 263.433594 L 627.246094 263.433594 C 628.148438 263.433594 629.046875 263.476562 629.945312 263.566406 C 630.84375 263.652344 631.734375 263.785156 632.617188 263.960938 C 633.503906 264.136719 634.375 264.355469 635.238281 264.617188 C 636.101562 264.878906 636.949219 265.183594 637.78125 265.527344 C 638.613281 265.875 639.429688 266.257812 640.222656 266.683594 C 641.019531 267.109375 641.789062 267.570312 642.539062 268.070312 C 643.289062 268.574219 644.011719 269.109375 644.710938 269.679688 C 645.40625 270.253906 646.074219 270.859375 646.710938 271.496094 C 647.347656 272.132812 647.953125 272.800781 648.527344 273.496094 C 649.097656 274.195312 649.632812 274.917969 650.136719 275.667969 C 650.636719 276.414062 651.097656 277.1875 651.523438 277.984375 C 651.949219 278.777344 652.332031 279.59375 652.679688 280.425781 C 653.023438 281.257812 653.328125 282.105469 653.589844 282.96875 C 653.851562 283.832031 654.070312 284.703125 654.246094 285.589844 C 654.421875 286.472656 654.554688 287.363281 654.640625 288.261719 C 654.730469 289.15625 654.773438 290.058594 654.773438 290.957031 C 654.773438 291.859375 654.730469 292.757812 654.640625 293.65625 C 654.554688 294.554688 654.421875 295.445312 654.246094 296.328125 C 654.070312 297.214844 653.851562 298.085938 653.589844 298.949219 C 653.328125 299.8125 653.023438 300.660156 652.679688 301.492188 C 652.332031 302.324219 651.949219 303.140625 651.523438 303.933594 C 651.097656 304.730469 650.636719 305.5 650.136719 306.25 C 649.632812 307 649.097656 307.722656 648.527344 308.421875 C 647.953125 309.117188 647.347656 309.785156 646.710938 310.421875 C 646.074219 311.058594 645.40625 311.664062 644.710938 312.238281 C 644.011719 312.808594 643.289062 313.34375 642.539062 313.847656 C 641.789062 314.347656 641.019531 314.808594 640.222656 315.234375 C 639.429688 315.660156 638.613281 316.042969 637.78125 316.390625 C 636.949219 316.734375 636.101562 317.039062 635.238281 317.300781 C 634.375 317.5625 633.503906 317.78125 632.617188 317.957031 C 631.734375 318.132812 630.84375 318.265625 629.945312 318.351562 C 629.046875 318.441406 628.148438 318.484375 627.246094 318.484375 Z M 627.246094 318.484375 " fill-opacity="1" fill-rule="nonzero"/></g></svg>