<svg xmlns="http://www.w3.org/2000/svg" xmlns:xlink="http://www.w3.org/1999/xlink" width="1080" zoomAndPan="magnify" viewBox="0 0 810 809.999993" height="1080" preserveAspectRatio="xMidYMid meet" version="1.0"><defs><clipPath id="9f8b681f2b"><path d="M 3.175781 3.175781 L 807 3.175781 L 807 807 L 3.175781 807 Z M 3.175781 3.175781 " clip-rule="nonzero"/></clipPath><clipPath id="a34e42e0f1"><path d="M 538.921875 179.046875 L 586.171875 179.046875 L 586.171875 226.296875 L 538.921875 226.296875 Z M 538.921875 179.046875 " clip-rule="nonzero"/></clipPath></defs><g clip-path="url(#9f8b681f2b)"><path fill="#ffffff" d="M 405 3.175781 C 183.460938 3.175781 3.175781 183.460938 3.175781 405 C 3.175781 626.539062 183.460938 806.824219 405 806.824219 C 626.539062 806.824219 806.824219 626.539062 806.824219 405 C 806.824219 183.460938 626.539062 3.175781 405 3.175781 Z M 609.664062 609.664062 C 604.574219 615.019531 597.605469 617.699219 590.910156 617.699219 C 583.945312 617.699219 576.980469 615.019531 571.890625 609.664062 L 462.59375 500.367188 C 430.71875 523.941406 392.945312 535.996094 354.90625 535.996094 C 308.5625 535.996094 262.21875 518.3125 227.125 482.953125 C 156.402344 412.5 156.402344 297.578125 227.125 227.125 C 297.578125 156.402344 412.234375 156.402344 482.953125 227.125 C 547.246094 291.148438 552.871094 391.605469 500.367188 462.59375 L 609.664062 571.890625 C 620.109375 582.339844 620.109375 599.214844 609.664062 609.664062 Z M 609.664062 609.664062 " fill-opacity="1" fill-rule="nonzero"/></g><path fill="#ffffff" d="M 354.90625 227.660156 C 322.492188 227.660156 289.808594 239.984375 264.898438 264.894531 C 215.335938 314.453125 215.335938 395.355469 264.898438 445.183594 C 314.453125 494.738281 395.355469 494.738281 445.183594 445.183594 C 494.738281 395.355469 494.738281 314.453125 445.183594 264.894531 C 420.269531 239.984375 387.585938 227.660156 354.90625 227.660156 Z M 354.90625 227.660156 " fill-opacity="1" fill-rule="nonzero"/><g clip-path="url(#a34e42e0f1)"><path fill="#ffffff" d="M 562.484375 179.046875 C 549.492188 179.046875 538.921875 189.617188 538.921875 202.605469 C 538.921875 215.597656 549.492188 226.167969 562.484375 226.167969 C 575.472656 226.167969 586.042969 215.597656 586.042969 202.605469 C 586.042969 189.617188 575.472656 179.046875 562.484375 179.046875 Z M 574.484375 214.609375 C 574.183594 214.921875 573.777344 215.078125 573.382812 215.078125 C 572.976562 215.078125 572.566406 214.921875 572.269531 214.609375 L 565.859375 208.199219 C 563.992188 209.582031 561.777344 210.289062 559.546875 210.289062 C 556.828125 210.289062 554.113281 209.25 552.054688 207.179688 C 547.90625 203.046875 547.90625 196.308594 552.054688 192.179688 C 556.183594 188.03125 562.90625 188.03125 567.054688 192.179688 C 570.824219 195.933594 571.152344 201.820312 568.074219 205.984375 L 574.484375 212.394531 C 575.097656 213.003906 575.097656 213.996094 574.484375 214.609375 Z M 574.484375 214.609375 " fill-opacity="1" fill-rule="nonzero"/></g><path fill="#ffffff" d="M 559.546875 192.210938 C 557.644531 192.210938 555.730469 192.933594 554.269531 194.390625 C 551.363281 197.296875 551.363281 202.042969 554.269531 204.964844 C 557.175781 207.867188 561.917969 207.867188 564.839844 204.964844 C 567.746094 202.042969 567.746094 197.296875 564.839844 194.390625 C 563.378906 192.933594 561.460938 192.210938 559.546875 192.210938 Z M 559.546875 192.210938 " fill-opacity="1" fill-rule="nonzero"/></svg>