<svg xmlns="http://www.w3.org/2000/svg" xmlns:xlink="http://www.w3.org/1999/xlink" width="1080" zoomAndPan="magnify" viewBox="0 0 810 809.999993" height="1080" preserveAspectRatio="xMidYMid meet" version="1.0"><defs><clipPath id="f2ed80b608"><path d="M 8.886719 8.886719 L 800.886719 8.886719 L 800.886719 800.886719 L 8.886719 800.886719 Z M 8.886719 8.886719 " clip-rule="nonzero"/></clipPath></defs><path fill="#000000" d="M 521.773438 380.378906 C 521.773438 382.695312 521.714844 385.007812 521.601562 387.316406 C 521.488281 389.628906 521.320312 391.9375 521.09375 394.238281 C 520.867188 396.542969 520.582031 398.835938 520.242188 401.125 C 519.902344 403.414062 519.507812 405.695312 519.054688 407.964844 C 518.605469 410.234375 518.097656 412.492188 517.535156 414.734375 C 516.972656 416.980469 516.355469 419.210938 515.683594 421.425781 C 515.011719 423.636719 514.289062 425.835938 513.507812 428.015625 C 512.726562 430.191406 511.894531 432.351562 511.011719 434.488281 C 510.125 436.625 509.1875 438.742188 508.199219 440.832031 C 507.207031 442.925781 506.167969 444.992188 505.078125 447.03125 C 503.988281 449.074219 502.847656 451.085938 501.65625 453.070312 C 500.46875 455.054688 499.230469 457.007812 497.945312 458.933594 C 496.660156 460.859375 495.328125 462.75 493.949219 464.609375 C 492.570312 466.464844 491.144531 468.289062 489.679688 470.078125 C 488.210938 471.867188 486.699219 473.621094 485.144531 475.332031 C 483.589844 477.046875 481.996094 478.722656 480.359375 480.359375 C 478.722656 481.996094 477.046875 483.589844 475.332031 485.144531 C 473.621094 486.699219 471.867188 488.210938 470.078125 489.679688 C 468.289062 491.144531 466.464844 492.570312 464.609375 493.949219 C 462.75 495.328125 460.859375 496.660156 458.933594 497.945312 C 457.007812 499.230469 455.054688 500.46875 453.070312 501.65625 C 451.085938 502.847656 449.074219 503.988281 447.03125 505.078125 C 444.992188 506.167969 442.925781 507.207031 440.832031 508.199219 C 438.742188 509.1875 436.625 510.125 434.488281 511.011719 C 432.351562 511.894531 430.191406 512.726562 428.015625 513.507812 C 425.835938 514.289062 423.636719 515.011719 421.425781 515.683594 C 419.210938 516.355469 416.980469 516.972656 414.734375 517.535156 C 412.492188 518.097656 410.234375 518.605469 407.964844 519.054688 C 405.695312 519.507812 403.414062 519.902344 401.125 520.242188 C 398.835938 520.582031 396.542969 520.867188 394.238281 521.09375 C 391.9375 521.320312 389.628906 521.488281 387.316406 521.601562 C 385.007812 521.714844 382.695312 521.773438 380.378906 521.773438 C 378.066406 521.773438 375.753906 521.714844 373.441406 521.601562 C 371.128906 521.488281 368.824219 521.320312 366.519531 521.09375 C 364.21875 520.867188 361.921875 520.582031 359.632812 520.242188 C 357.34375 519.902344 355.066406 519.507812 352.796875 519.054688 C 350.527344 518.605469 348.269531 518.097656 346.023438 517.535156 C 343.777344 516.972656 341.550781 516.355469 339.335938 515.683594 C 337.121094 515.011719 334.925781 514.289062 332.746094 513.507812 C 330.566406 512.726562 328.410156 511.894531 326.269531 511.011719 C 324.132812 510.125 322.019531 509.1875 319.925781 508.199219 C 317.835938 507.207031 315.769531 506.167969 313.726562 505.078125 C 311.6875 503.988281 309.671875 502.847656 307.6875 501.65625 C 305.703125 500.46875 303.75 499.230469 301.824219 497.945312 C 299.902344 496.660156 298.011719 495.328125 296.152344 493.949219 C 294.292969 492.570312 292.46875 491.144531 290.679688 489.679688 C 288.890625 488.210938 287.140625 486.699219 285.425781 485.144531 C 283.710938 483.589844 282.035156 481.996094 280.398438 480.359375 C 278.761719 478.722656 277.167969 477.046875 275.613281 475.332031 C 274.058594 473.621094 272.550781 471.867188 271.082031 470.078125 C 269.613281 468.289062 268.191406 466.464844 266.8125 464.609375 C 265.433594 462.75 264.101562 460.859375 262.816406 458.933594 C 261.53125 457.007812 260.292969 455.054688 259.101562 453.070312 C 257.914062 451.085938 256.773438 449.074219 255.679688 447.03125 C 254.589844 444.992188 253.550781 442.925781 252.5625 440.832031 C 251.570312 438.742188 250.632812 436.625 249.75 434.488281 C 248.863281 432.351562 248.03125 430.191406 247.25 428.015625 C 246.472656 425.835938 245.746094 423.636719 245.074219 421.425781 C 244.402344 419.210938 243.785156 416.980469 243.222656 414.734375 C 242.660156 412.492188 242.152344 410.234375 241.703125 407.964844 C 241.25 405.695312 240.855469 403.414062 240.515625 401.125 C 240.175781 398.835938 239.894531 396.542969 239.667969 394.238281 C 239.441406 391.9375 239.269531 389.628906 239.15625 387.316406 C 239.042969 385.007812 238.984375 382.695312 238.984375 380.378906 C 238.984375 378.066406 239.042969 375.753906 239.15625 373.441406 C 239.269531 371.128906 239.441406 368.824219 239.667969 366.519531 C 239.894531 364.21875 240.175781 361.921875 240.515625 359.632812 C 240.855469 357.34375 241.25 355.066406 241.703125 352.796875 C 242.152344 350.527344 242.660156 348.269531 243.222656 346.023438 C 243.785156 343.777344 244.402344 341.550781 245.074219 339.335938 C 245.746094 337.121094 246.472656 334.925781 247.25 332.746094 C 248.03125 330.566406 248.863281 328.410156 249.75 326.269531 C 250.632812 324.132812 251.570312 322.019531 252.5625 319.925781 C 253.550781 317.835938 254.589844 315.769531 255.679688 313.726562 C 256.773438 311.6875 257.914062 309.671875 259.101562 307.6875 C 260.292969 305.703125 261.53125 303.75 262.816406 301.824219 C 264.101562 299.902344 265.433594 298.011719 266.8125 296.152344 C 268.191406 294.292969 269.613281 292.46875 271.082031 290.679688 C 272.550781 288.890625 274.058594 287.140625 275.613281 285.425781 C 277.167969 283.710938 278.761719 282.035156 280.398438 280.398438 C 282.035156 278.761719 283.710938 277.167969 285.425781 275.613281 C 287.140625 274.058594 288.890625 272.550781 290.679688 271.082031 C 292.46875 269.613281 294.292969 268.191406 296.152344 266.8125 C 298.011719 265.433594 299.902344 264.101562 301.824219 262.816406 C 303.75 261.53125 305.703125 260.292969 307.6875 259.101562 C 309.671875 257.914062 311.6875 256.773438 313.726562 255.679688 C 315.769531 254.589844 317.835938 253.550781 319.925781 252.5625 C 322.019531 251.570312 324.132812 250.632812 326.269531 249.75 C 328.410156 248.863281 330.566406 248.03125 332.746094 247.25 C 334.925781 246.472656 337.121094 245.746094 339.335938 245.074219 C 341.550781 244.402344 343.777344 243.785156 346.023438 243.222656 C 348.269531 242.660156 350.527344 242.15625 352.796875 241.703125 C 355.066406 241.25 357.34375 240.855469 359.632812 240.515625 C 361.921875 240.175781 364.21875 239.894531 366.519531 239.667969 C 368.824219 239.441406 371.128906 239.269531 373.441406 239.15625 C 375.753906 239.042969 378.066406 238.984375 380.378906 238.984375 C 382.695312 238.984375 385.007812 239.042969 387.316406 239.15625 C 389.628906 239.269531 391.9375 239.441406 394.238281 239.667969 C 396.542969 239.894531 398.835938 240.175781 401.125 240.515625 C 403.414062 240.855469 405.695312 241.25 407.964844 241.703125 C 410.234375 242.15625 412.492188 242.660156 414.734375 243.222656 C 416.980469 243.785156 419.210938 244.402344 421.425781 245.074219 C 423.636719 245.746094 425.835938 246.472656 428.015625 247.25 C 430.191406 248.03125 432.351562 248.863281 434.488281 249.75 C 436.625 250.632812 438.742188 251.570312 440.832031 252.5625 C 442.925781 253.550781 444.992188 254.589844 447.03125 255.679688 C 449.074219 256.773438 451.085938 257.914062 453.070312 259.101562 C 455.054688 260.292969 457.007812 261.53125 458.933594 262.816406 C 460.859375 264.101562 462.75 265.433594 464.609375 266.8125 C 466.464844 268.191406 468.289062 269.613281 470.078125 271.082031 C 471.867188 272.550781 473.621094 274.058594 475.332031 275.613281 C 477.046875 277.167969 478.722656 278.761719 480.359375 280.398438 C 481.996094 282.035156 483.589844 283.710938 485.144531 285.425781 C 486.699219 287.140625 488.210938 288.890625 489.679688 290.679688 C 491.144531 292.46875 492.570312 294.292969 493.949219 296.152344 C 495.328125 298.011719 496.660156 299.902344 497.945312 301.824219 C 499.230469 303.75 500.46875 305.703125 501.65625 307.6875 C 502.847656 309.671875 503.988281 311.6875 505.078125 313.726562 C 506.167969 315.769531 507.207031 317.835938 508.199219 319.925781 C 509.1875 322.019531 510.125 324.132812 511.011719 326.269531 C 511.894531 328.410156 512.726562 330.566406 513.507812 332.746094 C 514.289062 334.925781 515.011719 337.121094 515.683594 339.335938 C 516.355469 341.550781 516.972656 343.777344 517.535156 346.023438 C 518.097656 348.269531 518.605469 350.527344 519.054688 352.796875 C 519.507812 355.066406 519.902344 357.34375 520.242188 359.632812 C 520.582031 361.921875 520.867188 364.21875 521.09375 366.519531 C 521.320312 368.824219 521.488281 371.128906 521.601562 373.441406 C 521.714844 375.753906 521.773438 378.066406 521.773438 380.378906 Z M 521.773438 380.378906 " fill-opacity="1" fill-rule="nonzero"/><g clip-path="url(#f2ed80b608)"><path fill="#000000" d="M 404.886719 8.886719 C 186.183594 8.886719 8.886719 186.183594 8.886719 404.886719 C 8.886719 623.59375 186.183594 800.886719 404.886719 800.886719 C 623.59375 800.886719 800.886719 623.59375 800.886719 404.886719 C 800.886719 186.183594 623.59375 8.886719 404.886719 8.886719 Z M 635.15625 635.15625 C 620.433594 649.882812 596.558594 649.882812 581.835938 635.15625 L 504.691406 558.011719 C 469.578125 582.632812 426.839844 597.113281 380.714844 597.183594 C 262.601562 597.359375 165.511719 502.0625 163.605469 383.964844 C 161.625 261.386719 261.390625 161.625 383.964844 163.605469 C 502.0625 165.511719 597.363281 262.601562 597.183594 380.710938 C 597.113281 426.835938 582.632812 469.574219 558.011719 504.691406 L 635.15625 581.832031 C 649.882812 596.558594 649.882812 620.433594 635.15625 635.15625 Z M 635.15625 635.15625 " fill-opacity="1" fill-rule="nonzero"/></g></svg>